<svg xmlns="http://www.w3.org/2000/svg" viewBox="0 0 350 500">
<defs><linearGradient id="g" x1="0" y1="0" x2="1" y2="1"><stop stop-color="#22282a"/><stop offset="1" stop-color="#090b0c"/></linearGradient></defs>
<rect x="6" y="6" width="338" height="488" rx="18" fill="url(#g)" stroke="#857b6b" stroke-width="5"/><rect x="21" y="21" width="308" height="458" rx="14" fill="none" stroke="#50595c" stroke-width="2"/><rect x="34" y="34" width="282" height="432" rx="12" fill="none" stroke="#2c3538"/>
<g fill="#d8d4cb"><rect x="142" y="142" width="18" height="88"/><rect x="166" y="142" width="18" height="88"/><rect x="190" y="142" width="18" height="88"/></g>
<text x="175" y="293" text-anchor="middle" fill="#e8e2d5" font-size="34" font-family="Arial" font-weight="900" letter-spacing="5">SEVEN</text><text x="175" y="338" text-anchor="middle" fill="#e8e2d5" font-size="34" font-family="Arial" font-weight="900" letter-spacing="5">CITADEL</text><text x="175" y="382" text-anchor="middle" fill="#748b92" font-size="10" font-family="Arial" letter-spacing="3">LO QUE QUEDA, IMPORTA.</text>
<g stroke="#ad9d83" opacity=".32"><path d="M42 80l96-12M217 87l83 14M51 415l73 9M207 429l84-18M90 252l39 3M232 245l45-7"/><path d="M52 92l35 1M262 117l42 9M67 445l74-6" stroke="#d65d49"/></g>
</svg>